<?xml version="1.0" encoding="UTF-8" standalone="no"?>
<!-- Created with Inkscape (http://www.inkscape.org/) -->

<svg
   xmlns:dc="http://purl.org/dc/elements/1.1/"
   xmlns:cc="http://creativecommons.org/ns#"
   xmlns:rdf="http://www.w3.org/1999/02/22-rdf-syntax-ns#"
   xmlns:svg="http://www.w3.org/2000/svg"
   xmlns="http://www.w3.org/2000/svg"
   xmlns:sodipodi="http://sodipodi.sourceforge.net/DTD/sodipodi-0.dtd"
   xmlns:inkscape="http://www.inkscape.org/namespaces/inkscape"
   width="210mm"
   height="297mm"
   viewBox="0 0 210 297"
   version="1.1"
   id="svg8"
   inkscape:version="0.92.3 (2405546, 2018-03-11)"
   sodipodi:docname="crotchet.svg">
  <defs
     id="defs2" />
  <sodipodi:namedview
     id="base"
     pagecolor="#ffffff"
     bordercolor="#666666"
     borderopacity="1.0"
     inkscape:pageopacity="0.0"
     inkscape:pageshadow="2"
     inkscape:zoom="0.35"
     inkscape:cx="-463.12341"
     inkscape:cy="493.75027"
     inkscape:document-units="mm"
     inkscape:current-layer="layer1"
     showgrid="false"
     inkscape:window-width="1366"
     inkscape:window-height="705"
     inkscape:window-x="-8"
     inkscape:window-y="-8"
     inkscape:window-maximized="1" />
  <metadata
     id="metadata5">
    <rdf:RDF>
      <cc:Work
         rdf:about="">
        <dc:format>image/svg+xml</dc:format>
        <dc:type
           rdf:resource="http://purl.org/dc/dcmitype/StillImage" />
        <dc:title></dc:title>
      </cc:Work>
    </rdf:RDF>
  </metadata>
  <g
     inkscape:label="Layer 1"
     inkscape:groupmode="layer"
     id="layer1">
    <path
       style="stroke-width:1.27800846"
       d="M 459.90625 -38.257812 C 459.89113 -38.259075 459.89151 -38.246932 459.91797 -38.214844 C 459.92931 -38.201615 459.93189 -38.198775 459.93945 -38.185547 C 460.19306 -38.018038 460.45111 -37.856895 460.70312 -37.6875 C 460.93216 -37.533613 460.01501 -38.246784 459.9082 -38.257812 L 459.90625 -38.257812 z M 441.27734 -0.0625 C 441.23766 -0.029038369 441.20142 0.0033985831 441.16211 0.037109375 C 441.27323 0.19704885 441.31435 0.25544495 441.42773 0.41796875 C 441.45419 0.40017095 441.48136 0.38406116 441.50781 0.3671875 C 441.43071 0.22572311 441.35482 0.080445209 441.27734 -0.0625 z M 384.16602 5.9824219 A 43.259875 45.512995 0 0 0 340.9082 51.496094 A 43.259875 45.512995 0 0 0 342.01953 61.492188 C 341.71528 61.603759 341.41144 61.718166 341.10742 61.830078 L 510.03516 801.16992 A 145.27204 248.61787 71.2 0 0 405.8457 821.98047 A 145.27204 248.61787 71.2 0 0 217.30859 1039.625 A 145.27204 248.61787 71.2 0 0 499.47852 1097.0234 A 145.27204 248.61787 71.2 0 0 692.16406 902.15039 C 694.43715 884.73709 693.55681 865.68561 688.36328 849.625 L 426.48633 39.789062 C 426.28412 39.662411 426.06782 39.51974 425.86523 39.392578 A 43.259875 45.512995 0 0 0 384.16602 5.9824219 z M 812.83008 12.871094 C 813.27716 13.474563 813.80914 14.161663 814.51172 15.015625 C 814.70523 14.867468 814.90067 14.714674 815.0918 14.570312 C 814.37217 13.960524 813.61834 13.393632 812.83008 12.871094 z M 619.15234 39.900391 C 618.91234 40.699489 618.66887 41.496353 618.42773 42.294922 C 620.98666 42.154134 623.58751 41.802276 626.09375 41.871094 C 623.82494 41.246995 621.51742 40.595056 619.15234 39.900391 z M 793.31836 67.707031 C 792.68136 67.753776 792.04478 67.80326 791.39258 67.830078 C 791.38124 67.833858 791.37462 67.838459 791.36328 67.84375 C 791.79029 68.09369 792.1936 68.353892 792.58984 68.621094 C 792.93151 68.483972 793.27093 68.352997 793.61328 68.214844 C 793.51653 68.0445 793.41474 67.877696 793.31836 67.707031 z "
       transform="scale(0.26458333)"
       id="path3713" />
    <path
       style="stroke-width:0.99999994"
       d="m -1137.1426,235.69727 c -100.6836,118.19703 -156.8768,274.40186 -157.1426,436.82226 -2e-4,169.35976 60.8056,331.78307 169.0409,451.53867 108.2352,119.7555 255.03382,187.0335 408.10172,187.0336 153.06789,-10e-5 299.86648,-67.2781 408.10173,-187.0337 C -200.80561,1004.3026 -139.99979,841.87929 -140,672.51953 c -0.0953,-10.96064 -0.44571,-21.91674 -1.05078,-32.85742 h -996.09182 z"
       transform="scale(0.26458333)"
       id="path3723" />
  </g>
</svg>
