<?xml version="1.0" encoding="UTF-8" standalone="no"?>
<!-- Created with Inkscape (http://www.inkscape.org/) -->

<svg
   xmlns:dc="http://purl.org/dc/elements/1.1/"
   xmlns:cc="http://creativecommons.org/ns#"
   xmlns:rdf="http://www.w3.org/1999/02/22-rdf-syntax-ns#"
   xmlns:svg="http://www.w3.org/2000/svg"
   xmlns="http://www.w3.org/2000/svg"
   xmlns:sodipodi="http://sodipodi.sourceforge.net/DTD/sodipodi-0.dtd"
   xmlns:inkscape="http://www.inkscape.org/namespaces/inkscape"
   width="210mm"
   height="297mm"
   viewBox="0 0 210 297"
   version="1.1"
   id="svg8"
   inkscape:version="0.92.3 (2405546, 2018-03-11)"
   sodipodi:docname="minim.svg">
  <defs
     id="defs2" />
  <sodipodi:namedview
     id="base"
     pagecolor="#ffffff"
     bordercolor="#666666"
     borderopacity="1.0"
     inkscape:pageopacity="0.0"
     inkscape:pageshadow="2"
     inkscape:zoom="0.35"
     inkscape:cx="24.019444"
     inkscape:cy="493.75027"
     inkscape:document-units="mm"
     inkscape:current-layer="layer1"
     showgrid="false"
     inkscape:window-width="1366"
     inkscape:window-height="705"
     inkscape:window-x="-8"
     inkscape:window-y="-8"
     inkscape:window-maximized="1" />
  <metadata
     id="metadata5">
    <rdf:RDF>
      <cc:Work
         rdf:about="">
        <dc:format>image/svg+xml</dc:format>
        <dc:type
           rdf:resource="http://purl.org/dc/dcmitype/StillImage" />
        <dc:title />
      </cc:Work>
    </rdf:RDF>
  </metadata>
  <g
     inkscape:label="Layer 1"
     inkscape:groupmode="layer"
     id="layer1">
    <path
       style="stroke-width:0.33813974"
       d="m 121.68342,-10.122155 c -0.004,-3.34e-4 -0.004,0.0026 0.003,0.01109 0.003,0.0035 0.004,0.0043 0.006,0.0078 0.0671,0.04432 0.13545,0.08689 0.20213,0.131709 0.0606,0.040716 -0.18235,-0.147699 -0.21061,-0.150617 z m -4.92865,10.10574542 c -0.0105,0.00885339 -0.0202,0.0171605063 -0.0306,0.02607982 0.0294,0.04231732 0.0405,0.05806505 0.0705,0.10106614 0.007,-0.004709 0.0138,-0.00923 0.0208,-0.01369449 -0.0204,-0.03742912 -0.0402,-0.07563055 -0.0607,-0.11345147 z M 101.64407,1.5830069 A 11.445842,12.04198 0 0 0 90.198416,13.625266 11.445842,12.04198 0 0 0 90.492479,16.26988 c -0.0805,0.02952 -0.160812,0.05971 -0.24125,0.08932 l 44.695701,195.61677 a 38.436561,65.780144 71.2 0 0 -27.56699,5.50635 38.436561,65.780144 71.2 0 0 -49.88386,57.58494 38.436561,65.780144 71.2 0 0 74.65756,15.18698 38.436561,65.780144 71.2 0 0 50.98122,-51.56022 c 0.60142,-4.60727 0.3687,-9.6479 -1.00542,-13.89727 L 112.8413,10.527492 c -0.0535,-0.03351 -0.11071,-0.07133 -0.16431,-0.104975 A 11.445842,12.04198 0 0 0 101.64407,1.5830069 Z m 113.41722,1.8224126 c 0.11829,0.159668 0.25879,0.3413188 0.44468,0.5672629 0.0512,-0.0392 0.10331,-0.079172 0.15388,-0.1173676 -0.1904,-0.1613399 -0.39,-0.3116403 -0.59856,-0.4498953 z m -51.24398,7.1514135 c -0.0635,0.211428 -0.1279,0.422481 -0.1917,0.633769 0.67705,-0.03725 1.36534,-0.130357 2.02845,-0.112149 -0.60029,-0.165126 -1.21099,-0.337823 -1.83675,-0.52162 z m 46.08254,7.357458 c -0.16888,0.01239 -0.33763,0.02549 -0.51054,0.0326 -0.003,10e-4 -0.005,0.0019 -0.008,0.0033 0.11298,0.06613 0.21987,0.135341 0.32471,0.206038 0.0904,-0.03628 0.18001,-0.07103 0.27059,-0.107583 -0.0256,-0.04507 -0.0521,-0.08916 -0.0776,-0.134315 z M 142.6806,231.93121 a 22.689571,46.518164 69.693214 0 1 24.46595,11.23244 22.689571,46.518164 69.693214 0 1 -37.33694,37.245 22.689571,46.518164 69.693214 0 1 -50.364399,-6.2966 22.689571,46.518164 69.693214 0 1 37.337589,-37.24566 22.689571,46.518164 69.693214 0 1 25.8978,-4.93518 z"
       id="path3713"
       inkscape:connector-curvature="0" />
    <path
       style="stroke-width:0.99999994"
       d="m -1137.1426,235.69727 c -100.6836,118.19703 -156.8768,274.40186 -157.1426,436.82226 -2e-4,169.35976 60.8056,331.78307 169.0409,451.53867 108.2352,119.7555 255.03382,187.0335 408.10172,187.0336 153.06789,-10e-5 299.86648,-67.2781 408.10173,-187.0337 C -200.80561,1004.3026 -139.99979,841.87929 -140,672.51953 c -0.0953,-10.96064 -0.44571,-21.91674 -1.05078,-32.85742 h -996.09182 z"
       transform="scale(0.26458333)"
       id="path3723" />
  </g>
</svg>
