<?xml version="1.0" encoding="UTF-8" standalone="no"?>
<!-- Created with Inkscape (http://www.inkscape.org/) -->

<svg
   xmlns:dc="http://purl.org/dc/elements/1.1/"
   xmlns:cc="http://creativecommons.org/ns#"
   xmlns:rdf="http://www.w3.org/1999/02/22-rdf-syntax-ns#"
   xmlns:svg="http://www.w3.org/2000/svg"
   xmlns="http://www.w3.org/2000/svg"
   xmlns:sodipodi="http://sodipodi.sourceforge.net/DTD/sodipodi-0.dtd"
   xmlns:inkscape="http://www.inkscape.org/namespaces/inkscape"
   width="210mm"
   height="297mm"
   viewBox="0 0 210 297"
   version="1.1"
   id="svg8"
   inkscape:version="0.92.3 (2405546, 2018-03-11)"
   sodipodi:docname="quaver.svg">
  <defs
     id="defs2" />
  <sodipodi:namedview
     id="base"
     pagecolor="#ffffff"
     bordercolor="#666666"
     borderopacity="1.0"
     inkscape:pageopacity="0.0"
     inkscape:pageshadow="2"
     inkscape:zoom="0.33984375"
     inkscape:cx="326.28061"
     inkscape:cy="584.67948"
     inkscape:document-units="mm"
     inkscape:current-layer="layer1"
     showgrid="false"
     inkscape:window-width="1366"
     inkscape:window-height="705"
     inkscape:window-x="-8"
     inkscape:window-y="-8"
     inkscape:window-maximized="1"
     inkscape:snap-nodes="false" />
  <metadata
     id="metadata5">
    <rdf:RDF>
      <cc:Work
         rdf:about="">
        <dc:format>image/svg+xml</dc:format>
        <dc:type
           rdf:resource="http://purl.org/dc/dcmitype/StillImage" />
        <dc:title></dc:title>
      </cc:Work>
    </rdf:RDF>
  </metadata>
  <g
     inkscape:label="Layer 1"
     inkscape:groupmode="layer"
     id="layer1">
    <path
       style="stroke-width:0.31097263"
       d="M 67.153239,1.3805681 C 64.510408,1.4364695 61.65616,1.8949452 58.539411,2.8430924 52.781529,5.9179886 50.048517,22.760313 52.373911,32.937815 L 94.996314,219.48099 c -8.30153,0.49246 -16.956366,2.22122 -25.352173,5.06395 -31.628284,10.76714 -52.167754,34.4775 -45.876046,52.9584 6.291591,18.48075 37.031387,24.7339 68.659362,13.96681 28.110983,-9.59232 47.977903,-29.68487 46.885253,-47.41773 0.55309,-4.23711 0.33906,-8.87276 -0.92465,-12.78072 L 74.252974,32.937815 c -0.89442,-2.704462 3.920943,-7.357658 7.579448,-6.25484 33.743348,14.822836 54.953168,34.913372 104.664748,2.378769 -41.74034,-8.941796 -30.0493,10.61446 -71.24446,-3.058866 C 93.857538,20.153388 88.673417,0.92538986 67.153239,1.3805681 Z"
       id="path3713"
       inkscape:connector-curvature="0"
       sodipodi:nodetypes="scccccccsccccs" />
    <path
       style="stroke-width:0.99999994"
       d="m -1137.1426,235.69727 c -100.6836,118.19703 -156.8768,274.40186 -157.1426,436.82226 -2e-4,169.35976 60.8056,331.78307 169.0409,451.53867 108.2352,119.7555 255.03382,187.0335 408.10172,187.0336 153.06789,-10e-5 299.86648,-67.2781 408.10173,-187.0337 C -200.80561,1004.3026 -139.99979,841.87929 -140,672.51953 c -0.0953,-10.96064 -0.44571,-21.91674 -1.05078,-32.85742 h -996.09182 z"
       transform="scale(0.26458333)"
       id="path3723" />
    <path
       id="path3713-6"
       style="stroke-width:0.35796043"
       d="m -179.48633,-3.8873498 c -0.0659,0.0089 -0.13089,0.01949 -0.19661,0.02882 0.0355,0.0597 0.10427,0.04243 0.19661,-0.02882 z m 0.72321,0.111456 c -0.77842,2.447965 -0.43751,1.660961 -2.07633,2.646132 -0.24032,0.397912 -0.49902,0.805627 -0.78081,1.200964 -0.3976,0.645565 -0.79523,1.291133 -1.19283,1.936698 0.15087,-0.181502 0.2879,-0.352894 0.37131,-0.481515 -0.0411,0.07931 -0.0769,0.151989 -0.11709,0.230425 0.206,-0.276148 0.35324,-0.466044 0.23856,-0.272378 -0.2962,0.500264 -0.48448,1.184383 -0.89728,1.562883 -0.36529,0.708885 -0.73811,1.384464 -1.18531,2.040015 35.30513,16.5560908 60.09098,35.2143038 114.132375,-0.154034 -48.047265,-10.292898 -26.24174,23.1135778 -73.661455,7.3742248 -12.33514,-3.3724538 -23.59644,-10.1651358 -34.83114,-16.0834148 z m -2.85714,3.847096 c 0.23842,-0.387124 0.47664,-0.774392 0.71506,-1.161518 -0.91834,0.561592 -2.42007,1.663631 -5.04993,4.1608 -0.99237,0.942301 2.3415,-1.41759 3.5121,-2.126421 0.17786,-0.03203 0.4914,-0.407988 0.82277,-0.872861 z m 0.71506,-1.161518 c 0.0231,-0.01407 0.0435,-0.02603 0.0658,-0.03945 0.41021,-0.679205 0.69293,-1.203166 0.42954,-0.764536 -0.16506,0.268011 -0.33022,0.535974 -0.49529,0.803982 z"
       inkscape:connector-curvature="0" />
    <path
       style="stroke-width:0.29542401"
       d="m -184.61969,53.879798 c -0.31305,-0.0054 22.01649,-13.479353 4.08061,-8.242672 -4.43749,-6.002552 2.96091,-0.90074 0,0 -5.46998,2.921152 4.18551,18.370926 6.39463,28.039551 l 3.02459,9.353616 v 0 l -3.02459,-9.353616 c -0.8497,-2.569239 3.72532,-6.989846 7.2009,-5.942169 32.05618,14.081665 52.20519,33.167572 99.431199,2.259701 -39.653319,-8.494706 -26.328113,16.740336 -65.463529,3.750675 -20.00782,-5.470192 -31.92186,-19.521517 -51.64381,-19.865086 z"
       id="path3713-6-1"
       inkscape:connector-curvature="0"
       sodipodi:nodetypes="ccccccccccc" />
  </g>
</svg>
